Coordinates
version=1
nRows=24
nColumns=22
inDegrees=yes

Units are S.I. units (second, meters, Newtons, ...)
If the header above contains a line with 'inDegrees', this indicates whether rotational values are in degrees (yes) or radians (no).

endheader
time	pelvis_tilt	pelvis_list	pelvis_rotation	pelvis_tx	pelvis_ty	pelvis_tz	hip_flexion_r	hip_adduction_r	hip_rotation_r	knee_angle_r	ankle_angle_r	subtalar_angle_r	hip_flexion_l	hip_adduction_l	hip_rotation_l	knee_angle_l	ankle_angle_l	subtalar_angle_l	lumbar_extension	lumbar_bending	lumbar_rotation
      5.66000000	      0.48882825	     -1.74729445	    -89.31279077	      0.92669919	      1.00948309	      0.48870885	     11.54693355	      5.87476109	    -19.39681883	    -20.95645944	      9.42621887	    -12.61628988	     11.78517534	     -6.82656671	     -1.08936104	    -61.09185350	      1.20739112	     17.31299177	     -3.77617390	      0.01436849	     -3.48880307
      5.67000000	      0.51622838	     -1.74243177	    -90.48502734	      0.92245620	      1.01016338	      0.49625489	     10.76958197	      6.31319044	    -18.37379220	    -20.38102844	      9.47715027	    -12.71085626	     12.85477505	     -6.63199554	     -0.80293961	    -60.55149486	      1.92468786	     17.22809226	     -3.81780719	     -0.19673286	     -2.93831827
      5.68000000	      0.52208363	     -1.73289521	    -91.64173765	      0.91820825	      1.01071846	      0.50367306	     10.00709440	      6.73919968	    -17.36621996	    -19.83658355	      9.53260892	    -12.79289792	     13.89183765	     -6.46271789	     -0.47813828	    -59.85601181	      2.64083981	     17.04982276	     -3.85481822	     -0.38202327	     -2.40666131
      5.69000000	      0.50900830	     -1.71582503	    -92.79029665	      0.91395308	      1.01113455	      0.51092628	      9.26535699	      7.15634156	    -16.33819112	    -19.32383817	      9.58628120	    -12.86728314	     14.90608203	     -6.32008095	     -0.13319495	    -59.02700133	      3.33404643	     16.79015988	     -3.89322772	     -0.54425757	     -1.88528693
      5.70000000	      0.48181935	     -1.69244116	    -93.94298308	      0.90965633	      1.01143460	      0.51805301	      8.53629635	      7.56501960	    -15.28700037	    -18.83196847	      9.63780375	    -12.94720320	     15.87977451	     -6.20902571	      0.19959301	    -58.04874959	      3.92731838	     16.36429804	     -3.92696667	     -0.69112587	     -1.37617645
      5.71000000	      0.44468268	     -1.64548111	    -95.09789048	      0.90535738	      1.01155302	      0.52504070	      7.85448319	      7.95133680	    -14.26538399	    -18.39149490	      9.72350948	    -13.00752021	     16.83700916	     -6.12149577	      0.52567471	    -56.94999412	      4.56015460	     15.96813694	     -3.93728565	     -0.82229614	     -0.86263425
      5.72000000	      0.40432601	     -1.59527759	    -96.25970533	      0.90107959	      1.01152956	      0.53184554	      7.21104858	      8.31162462	    -13.22457063	    -18.02264902	      9.82365574	    -13.06551470	     17.75574093	     -6.03600660	      0.85238258	    -55.73274985	      5.13706700	     15.47680204	     -3.95814851	     -0.94292824	     -0.34747064
      5.73000000	      0.36638332	     -1.54105788	    -97.42687055	      0.89684256	      1.01137054	      0.53849844	      6.60910052	      8.63654715	    -12.19276093	    -17.72966576	      9.95016328	    -13.11828715	     18.63063280	     -5.94264933	      1.17825399	    -54.39797798	      5.66691440	     14.90281969	     -3.98200773	     -1.05608052	      0.16471021
      5.74000000	      0.32723122	     -1.47750139	    -98.60660319	      0.89264342	      1.01108243	      0.54501660	      6.05060075	      8.93584717	    -11.14629965	    -17.50910788	     10.10263348	    -13.16725646	     19.46301459	     -5.84089939	      1.50660855	    -52.95368115	      6.12462405	     14.34844779	     -4.00202947	     -1.15772311	      0.68543843
      5.75000000	      0.28366598	     -1.39666292	    -99.79788832	      0.88845615	      1.01066278	      0.55143365	      5.53767754	      9.21802524	    -10.09461181	    -17.35285117	     10.28184435	    -13.21998980	     20.25958553	     -5.73836877	      1.83677535	    -51.40832727	      6.51665714	     13.94117753	     -4.00427685	     -1.24916999	      1.22915303
      5.76000000	      0.25679045	     -1.34484507	   -100.98885717	      0.88433981	      1.01021954	      0.55779626	      5.01703650	      9.44984502	     -9.03511291	    -17.24864473	     10.46220803	    -13.26841064	     20.96181615	     -5.58838482	      2.17616190	    -49.74587827	      6.73922852	     13.29781877	     -4.03541413	     -1.34802052	      1.74009480
      5.77000000	      0.21861968	     -1.26114026	   -102.19489248	      0.88020824	      1.00962773	      0.56410573	      4.55786439	      9.67914975	     -7.96708058	    -17.21775415	     10.66094534	    -13.32873160	     21.64278439	     -5.45120757	      2.51750609	    -48.00763091	      6.96346695	     13.03456866	     -4.02673728	     -1.42488853	      2.27724322
      5.78000000	      0.18716135	     -1.19502687	   -103.39511078	      0.87603697	      1.00900307	      0.57042377	      4.08925290	      9.88129614	     -6.89830504	    -17.22162000	     10.85997469	    -13.38620468	     22.23932268	     -5.29860443	      2.84604051	    -46.16572918	      7.07941006	     12.79458696	     -4.02498468	     -1.52001298	      2.80166399
      5.79000000	      0.15683148	     -1.13760500	   -104.59469843	      0.87182324	      1.00833297	      0.57678576	      3.61788932	     10.06184756	     -5.83842551	    -17.25958948	     11.06580561	    -13.43623084	     22.75953119	     -5.14244630	      3.14514928	    -44.23059451	      7.13176722	     12.65017166	     -4.01450753	     -1.61748116	      3.31296710
      5.80000000	      0.12502120	     -1.09129433	   -105.78849221	      0.86754759	      1.00762943	      0.58319515	      3.13688440	     10.22448592	     -4.78573709	    -17.32361463	     11.28058546	    -13.46737302	     23.20102371	     -4.98980495	      3.39868936	    -42.20486314	      7.13282744	     12.61738603	     -3.99858046	     -1.71999140	      3.80887502
      5.81000000	      0.09251204	     -1.04014105	   -106.97257727	      0.86319778	      1.00687561	      0.58965879	      2.65757296	     10.37294684	     -3.74718301	    -17.40225211	     11.50853449	    -13.47314185	     23.58536726	     -4.84695333	      3.59498591	    -40.10114505	      7.08921827	     12.70772899	     -3.95575963	     -1.82531716	      4.28350795
      5.82000000	      0.05962461	     -0.99715850	   -108.13767881	      0.85879903	      1.00609799	      0.59616182	      2.16881648	     10.50236758	     -2.72393466	    -17.49610670	     11.75611524	    -13.44144421	     23.90196430	     -4.70661065	      3.72794929	    -37.92483496	      7.01710525	     12.91073216	     -3.90620398	     -1.93550824	      4.72828209
      5.83000000	      0.03054952	     -0.95873552	   -109.28116150	      0.85438819	      1.00529320	      0.60271018	      1.67497466	     10.60616041	     -1.72292161	    -17.60204541	     12.02838231	    -13.37096152	     24.16192959	     -4.56040268	      3.79637040	    -35.69352461	      6.93016550	     13.22232275	     -3.84328502	     -2.04702525	      5.14057575
      5.84000000	     -0.00645999	     -0.96811062	   -110.38190942	      0.85000938	      1.00452504	      0.60930608	      1.13334018	     10.67863389	     -0.76097698	    -17.72468908	     12.33087920	    -13.20912131	     24.31864049	     -4.39039986	      3.83601532	    -33.41222431	      6.89955968	     13.74756695	     -3.82840808	     -2.16058790	      5.47918947
      5.85000000	     -0.01925344	     -0.93755110	   -111.45924304	      0.84565288	      1.00364073	      0.61592401	      0.64613387	     10.72232825	      0.17507152	    -17.86327148	     12.65960985	    -13.07269322	     24.48739454	     -4.20409922	      3.81828487	    -31.11337342	      6.85335389	     14.29784546	     -3.74603208	     -2.27546896	      5.79399436
      5.86000000	     -0.01920225	     -0.91186251	   -112.49830053	      0.84137548	      1.00270379	      0.62258570	      0.16661201	     10.73017438	      1.06968637	    -18.01899336	     13.01453268	    -12.92863422	     24.61803115	     -3.98237318	      3.79116089	    -28.80168788	      6.84363824	     14.93726252	     -3.65587342	     -2.38772206	      6.05277643
      5.87000000	     -0.00468522	     -0.88241797	   -113.49539217	      0.83718758	      1.00169544	      0.62929450	     -0.30010394	     10.70683147	      1.92424331	    -18.17937413	     13.39751937	    -12.78587308	     24.72449107	     -3.72188652	      3.79258014	    -26.49231746	      6.86935596	     15.64587591	     -3.54824537	     -2.49178800	      6.25337595
      5.88000000	      0.02781509	     -0.84724158	   -114.46552999	      0.83308796	      1.00059046	      0.63601284	     -0.72748261	     10.65309245	      2.74901522	    -18.38748346	     13.80140966	    -12.66610729	     24.81312688	     -3.42515990	      3.84778633	    -24.19874748	      6.93586543	     16.33114500	     -3.42778923	     -2.59005250	      6.40175708
      5.89000000	      0.07554469	     -0.80309006	   -115.40468822	      0.82906132	      0.99939516	      0.64276858	     -1.13058525	     10.57498773	      3.54009006	    -18.60921203	     14.22833836	    -12.55601394	     24.88901378	     -3.09947764	      3.99250354	    -21.93458261	      7.02354762	     16.97541176	     -3.28880245	     -2.67916392	      6.50559108
